<?xml version="1.0" encoding="iso-8859-1"?>
<!-- Uploaded to: SVG Repo, www.svgrepo.com, Generator: SVG Repo Mixer Tools -->
<svg height="800px" width="800px" version="1.1" id="Layer_1" xmlns="http://www.w3.org/2000/svg" xmlns:xlink="http://www.w3.org/1999/xlink" 
	 viewBox="0 0 512 512" xml:space="preserve">
<g transform="translate(0 1)">
	<path style="fill:#bef264;" d="M494.933,127H17.067c-5.12,0-8.533-3.413-8.533-8.533v-76.8c0-18.773,15.36-34.133,34.133-34.133
		h426.667c18.773,0,34.133,15.36,34.133,34.133v76.8C503.467,123.587,500.053,127,494.933,127"/>
	<path style="fill:#65a30d;" d="M469.333,7.533h-25.6c18.773,0,34.133,15.36,34.133,34.133v76.8c0,5.12-3.413,8.533-8.533,8.533
		h25.6c5.12,0,8.533-3.413,8.533-8.533v-76.8C503.467,22.893,488.107,7.533,469.333,7.533"/>
	<path style="fill:#bef264;" d="M469.333,502.467H42.667c-18.773,0-34.133-15.36-34.133-34.133v-76.8
		c0-5.12,3.413-8.533,8.533-8.533h477.867c5.12,0,8.533,3.413,8.533,8.533v76.8C503.467,487.107,488.107,502.467,469.333,502.467"/>
	<path style="fill:#65a30d;" d="M494.933,383h-25.6c5.12,0,8.533,3.413,8.533,8.533v76.8c0,18.773-15.36,34.133-34.133,34.133h25.6
		c18.773,0,34.133-15.36,34.133-34.133v-76.8C503.467,386.413,500.053,383,494.933,383"/>
	<polygon style="fill:#bef264;" points="25.6,383 486.4,383 486.4,127 25.6,127 	"/>
	<polygon style="fill:#65a30d;" points="460.8,383 486.4,383 486.4,127 460.8,127 	"/>
	<g>
		<path style="fill:#FFFFFF;" d="M34.133,7.533h25.6C40.96,7.533,25.6,22.893,25.6,41.667v76.8c0,5.12,3.413,8.533,8.533,8.533
			h-25.6C3.413,127,0,123.587,0,118.467v-76.8C0,22.893,15.36,7.533,34.133,7.533"/>
		<path style="fill:#FFFFFF;" d="M8.533,383h25.6c-5.12,0-8.533,3.413-8.533,8.533v76.8c0,18.773,15.36,34.133,34.133,34.133h-25.6
			C15.36,502.467,0,487.107,0,468.333v-76.8C0,386.413,3.413,383,8.533,383"/>
		<polygon style="fill:#FFFFFF;" points="17.067,383 42.667,383 42.667,127 17.067,127 		"/>
	</g>
	<path style="fill:#bef264;" d="M452.267,502.467H59.733V434.2c0-9.387,7.68-17.067,17.067-17.067h358.4
		c9.387,0,17.067,7.68,17.067,17.067V502.467z"/>
	<g>
		<path style="fill:#1CD759;" d="M435.2,348.867h-68.267c-9.387,0-17.067-7.68-17.067-17.067s7.68-17.067,17.067-17.067H435.2
			c9.387,0,17.067,7.68,17.067,17.067S444.587,348.867,435.2,348.867"/>
		<path style="fill:#1CD759;" d="M460.8,92.867H358.4c-5.12,0-8.533-3.413-8.533-8.533V50.2c0-5.12,3.413-8.533,8.533-8.533h102.4
			c5.12,0,8.533,3.413,8.533,8.533v34.133C469.333,89.453,465.92,92.867,460.8,92.867"/>
	</g>
	<path style="fill:#15A143;" d="M460.8,41.667h-25.6c5.12,0,8.533,3.413,8.533,8.533v34.133c0,5.12-3.413,8.533-8.533,8.533h25.6
		c5.12,0,8.533-3.413,8.533-8.533V50.2C469.333,45.08,465.92,41.667,460.8,41.667"/>
	<path style="fill:#1CD759;" d="M341.333,255c0,46.933-38.4,85.333-85.333,85.333s-85.333-38.4-85.333-85.333
		s38.4-85.333,85.333-85.333S341.333,208.067,341.333,255"/>
	<path style="fill:#15A143;" d="M256,169.667c-2.56,0-5.973,0-8.533,0c43.52,4.267,76.8,40.96,76.8,85.333
		s-33.28,80.213-76.8,85.333c2.56,0,5.973,0,8.533,0c46.933,0,85.333-38.4,85.333-85.333S302.933,169.667,256,169.667"/>
	<path style="fill:#bef264;" d="M307.2,255c0,28.16-23.04,51.2-51.2,51.2s-51.2-23.04-51.2-51.2s23.04-51.2,51.2-51.2
		S307.2,226.84,307.2,255"/>
	<path style="fill:#65a30d;" d="M256,203.8c-2.56,0-5.973,0-8.533,0.853C271.36,208.92,290.133,229.4,290.133,255
		s-18.773,46.08-42.667,50.347c2.56,0.853,5.973,0.853,8.533,0.853c28.16,0,51.2-23.04,51.2-51.2S284.16,203.8,256,203.8"/>
	<polygon style="fill:#1CD759;" points="68.267,229.4 136.533,229.4 136.533,161.133 68.267,161.133 	"/>
	<path style="fill:#bef264;" d="M136.533,187.587c-2.56-0.853-5.973-0.853-8.533-0.853c-18.773,0-34.133,15.36-34.133,34.133
		c0,2.56,0.853,5.973,0.853,8.533h41.813V187.587z"/>
	<path d="M494.933,135.533H17.067C7.68,135.533,0,127.853,0,118.467v-76.8C0,17.773,18.773-1,42.667-1h426.667
		C493.227-1,512,17.773,512,41.667v76.8C512,127.853,504.32,135.533,494.933,135.533z M494.933,118.467V127V118.467L494.933,118.467
		z M42.667,16.067c-14.507,0-25.6,11.093-25.6,25.6v76.8h477.867v-76.8c0-14.507-11.093-25.6-25.6-25.6H42.667z"/>
	<path d="M469.333,511H42.667C18.773,511,0,492.227,0,468.333v-76.8c0-9.387,7.68-17.067,17.067-17.067h477.867
		c9.387,0,17.067,7.68,17.067,17.067v76.8C512,492.227,493.227,511,469.333,511z M17.067,391.533v76.8
		c0,14.507,11.093,25.6,25.6,25.6h426.667c14.507,0,25.6-11.093,25.6-25.6v-76.8H17.067z"/>
	<path d="M452.267,511H59.733c-5.12,0-8.533-3.413-8.533-8.533V434.2c0-14.507,11.093-25.6,25.6-25.6h358.4
		c14.507,0,25.6,11.093,25.6,25.6v68.267C460.8,507.587,457.387,511,452.267,511z M68.267,493.933h375.467V434.2
		c0-5.12-3.413-8.533-8.533-8.533H76.8c-5.12,0-8.533,3.413-8.533,8.533V493.933z"/>
	<path d="M409.6,468.333H102.4c-5.12,0-8.533-3.413-8.533-8.533s3.413-8.533,8.533-8.533h307.2c5.12,0,8.533,3.413,8.533,8.533
		S414.72,468.333,409.6,468.333z"/>
	<path d="M486.4,391.533H25.6c-5.12,0-8.533-3.413-8.533-8.533V127c0-5.12,3.413-8.533,8.533-8.533h460.8
		c5.12,0,8.533,3.413,8.533,8.533v256C494.933,388.12,491.52,391.533,486.4,391.533z M34.133,374.467h443.733V135.533H34.133
		V374.467z"/>
	<path d="M256,348.867c-52.053,0-93.867-41.813-93.867-93.867s41.813-93.867,93.867-93.867s93.867,41.813,93.867,93.867
		S308.053,348.867,256,348.867z M256,178.2c-42.667,0-76.8,34.133-76.8,76.8s34.133,76.8,76.8,76.8s76.8-34.133,76.8-76.8
		S298.667,178.2,256,178.2z"/>
	<path d="M256,314.733c-33.28,0-59.733-26.453-59.733-59.733S222.72,195.267,256,195.267c33.28,0,59.733,26.453,59.733,59.733
		S289.28,314.733,256,314.733z M256,212.333c-23.893,0-42.667,18.773-42.667,42.667s18.773,42.667,42.667,42.667
		c23.893,0,42.667-18.773,42.667-42.667S279.893,212.333,256,212.333z"/>
	<path d="M136.533,237.933H68.267c-5.12,0-8.533-3.413-8.533-8.533v-68.267c0-5.12,3.413-8.533,8.533-8.533h68.267
		c5.12,0,8.533,3.413,8.533,8.533V229.4C145.067,234.52,141.653,237.933,136.533,237.933z M76.8,220.867H128v-51.2H76.8V220.867z"/>
	<path d="M136.533,237.933H94.72c-4.267,0-7.68-2.56-8.533-6.827c0-3.413-0.853-6.827-0.853-10.24
		c0-23.893,18.773-42.667,42.667-42.667c3.413,0,6.827,0.853,11.093,1.707c3.413,0.853,5.973,4.267,5.973,8.533v40.96
		C145.067,234.52,141.653,237.933,136.533,237.933z M102.4,220.867H128v-25.6C113.493,195.267,102.4,206.36,102.4,220.867z"/>
	<path d="M102.4,203.8c-2.56,0-4.267-0.853-5.973-2.56l-8.533-8.533c-3.413-3.413-3.413-8.533,0-11.947s8.533-3.413,11.947,0
		l8.533,8.533c3.413,3.413,3.413,8.533,0,11.947C106.667,202.947,104.96,203.8,102.4,203.8z"/>
	<path d="M435.2,357.4h-68.267c-14.507,0-25.6-11.093-25.6-25.6s11.093-25.6,25.6-25.6H435.2c14.507,0,25.6,11.093,25.6,25.6
		S449.707,357.4,435.2,357.4z M366.933,323.267c-5.12,0-8.533,3.413-8.533,8.533s3.413,8.533,8.533,8.533H435.2
		c5.12,0,8.533-3.413,8.533-8.533s-3.413-8.533-8.533-8.533H366.933z"/>
	<path d="M418.133,357.4c-5.12,0-8.533-3.413-8.533-8.533v-34.133c0-5.12,3.413-8.533,8.533-8.533s8.533,3.413,8.533,8.533v34.133
		C426.667,353.987,423.253,357.4,418.133,357.4z"/>
	<path d="M435.2,297.667h-17.067c-5.12,0-8.533-3.413-8.533-8.533c0-5.12,3.413-8.533,8.533-8.533H435.2
		c5.12,0,8.533,3.413,8.533,8.533C443.733,294.253,440.32,297.667,435.2,297.667z"/>
	<path d="M384,297.667h-17.067c-5.12,0-8.533-3.413-8.533-8.533c0-5.12,3.413-8.533,8.533-8.533H384c5.12,0,8.533,3.413,8.533,8.533
		C392.533,294.253,389.12,297.667,384,297.667z"/>
	<path d="M460.8,101.4H358.4c-9.387,0-17.067-7.68-17.067-17.067V50.2c0-9.387,7.68-17.067,17.067-17.067h102.4
		c9.387,0,17.067,7.68,17.067,17.067v34.133C477.867,93.72,470.187,101.4,460.8,101.4z M460.8,84.333v8.533V84.333L460.8,84.333z
		 M358.4,50.2v34.133h102.4V50.2H358.4z"/>
	<path d="M281.6,263.533c-5.12,0-8.533-3.413-8.533-8.533c0-9.387-7.68-17.067-17.067-17.067c-5.12,0-8.533-3.413-8.533-8.533
		c0-5.12,3.413-8.533,8.533-8.533c18.773,0,34.133,15.36,34.133,34.133C290.133,260.12,286.72,263.533,281.6,263.533z"/>
</g>
</svg>